<svg width="181" height="60" viewBox="0 0 181 60" fill="none" xmlns="http://www.w3.org/2000/svg">
<path d="M50.0679 54.9458C44.8495 57.5437 37.8261 55.8445 33.8689 51.638C29.753 47.356 28.2728 41.322 27.5629 35.6806C27.072 31.6403 27.2457 32.4861 27.0418 28.4684C26.9965 26.5955 27.0947 25.0549 27.0343 23.3784C26.9965 22.4192 26.9814 21.3469 26.6114 20.569L26.566 20.4935L26.5434 20.4633C26.6189 20.5917 26.7473 20.6898 26.9512 20.7654C27.1853 20.8333 27.4119 20.8333 27.5931 20.7427C27.1249 21.1203 26.8606 21.5357 26.483 22.1851C24.6403 25.6364 23.5981 29.1783 22.2765 33.0072C21.2117 35.8694 20.4489 39.0715 18.289 41.4352C17.0505 42.8928 14.732 43.7764 12.8591 42.5529C11.0768 41.3975 10.6011 39.6832 10.148 37.9538C9.32478 34.9405 9.09822 31.7384 8.74328 28.7025C8.67531 28.2192 8.56202 27.8114 8.4865 27.6679C8.39588 27.5018 8.59224 27.6906 8.66776 27.6679C8.72062 27.6604 8.55447 27.6452 8.62999 27.6226C8.66775 27.6075 8.81124 27.5471 8.86411 27.4791C8.92452 27.4187 8.90186 27.396 8.8339 27.4791C8.44874 28.0531 8.32791 28.7025 8.07869 29.5635C6.57584 34.8801 4.79357 39.9022 3.16233 45.1206C2.46755 47.5146 1.48578 49.9011 1.29698 52.3932C1.29698 52.4234 1.29698 52.4159 1.21391 52.363C1.44802 52.5065 1.51599 52.8161 1.3725 53.0502C1.22901 53.2844 0.919383 53.3523 0.685271 53.2088C-0.689197 52.3479 0.405844 46.1553 0.541781 44.5316C1.07797 40.6121 1.87849 36.3376 2.63369 32.4483C3.12457 30.2431 3.27561 28.4609 3.88733 26.233C4.60477 23.6125 7.09693 21.8151 9.89118 22.4872C13.418 23.2802 14.2336 26.8749 14.6036 29.8429C14.9586 32.1462 15.2833 34.2759 15.9252 36.4509C16.0536 36.9116 16.1896 37.3949 16.3633 37.7045C16.3935 37.7801 16.4161 37.7045 16.1367 37.4855C16.0914 37.4478 16.0083 37.3874 15.9404 37.3571C15.6836 37.2212 15.3891 37.123 15.0794 37.0928C14.4073 37.0475 14.0599 37.2061 13.7654 37.3949C14.0901 37.0702 14.2865 36.7454 14.5055 36.315C15.2531 34.7064 15.9101 32.7806 16.537 31.0286C17.6245 27.8794 18.7648 24.3828 20.313 21.2336C21.0757 19.7081 21.7101 18.394 22.9637 17.0498C25.5918 14.0743 30.1382 14.3537 31.7769 18.1675C33.1665 21.3997 32.5321 25.1531 32.3585 28.4005C32.1168 33.0223 32.1092 40.597 34.3748 46.3969C35.7191 49.8482 38.5285 52.5292 42.1383 53.6997C44.5248 54.4549 47.2208 54.825 49.6375 54.0245C49.9018 53.9263 50.1963 54.0698 50.2794 54.3341C50.3776 54.5758 50.2794 54.8325 50.0679 54.9458Z" fill="black"/>
<path d="M110.93 34.3136C110.144 36.2242 109.268 38.0443 107.947 39.6906C106.889 41.1179 104.805 42.4773 103.166 40.982C101.097 38.8674 101.255 34.6232 101.52 31.8969C101.671 30.311 102.199 28.6647 102.343 27.1769C102.328 27.2826 102.517 27.7358 102.721 27.8717C102.879 28.0378 103.317 28.2191 103.43 28.1889C102.116 28.4381 101.127 29.3368 100.228 30.4167C96.8074 34.8951 95.0628 40.4383 92.7519 45.7247C92.7746 45.989 92.5858 46.2231 92.3214 46.2458C92.0571 46.2684 91.8306 46.0796 91.8004 45.8228L91.7702 45.5434C91.4152 42.1979 91.317 38.8221 90.6374 35.5974C89.9728 32.4633 88.7493 29.8277 85.585 28.5363C85.0942 28.3475 85.1999 27.5847 85.7285 27.547C92.3517 27.1089 94.655 35.1669 94.0131 40.4458C93.8394 42.2583 93.4769 44.0255 92.7444 45.7171L91.7626 45.5359C91.7853 43.4893 92.0496 41.488 92.4574 39.4943C93.643 34.0644 96.46 25.9006 102.736 24.6621C104.269 24.3147 105.847 25.2587 105.892 26.9352C105.862 28.9214 105.054 30.5376 104.782 32.3954C104.458 34.1474 104.322 36.0354 104.541 37.7724C104.616 38.2935 104.714 38.7617 104.926 39.1242L104.896 39.162C104.941 39.2375 105.288 39.094 105.439 39.0109C107.342 37.7799 108.641 35.7484 110.046 33.8378C110.378 33.3469 111.156 33.7698 110.93 34.3136Z" fill="black"/>
<path d="M110.19 34.4345C115.355 27.2526 119.675 18.598 119.305 9.56574L119.373 9.90559C119.388 9.966 119.358 9.92069 119.35 9.92824C119.29 9.89803 119.335 9.99621 119.418 10.0415C119.486 10.0717 119.592 10.1095 119.652 10.117L119.697 10.1321L119.69 10.1548C118.882 11.0535 118.3 12.4733 117.787 13.7043C114.925 20.9995 113.263 28.8838 113.369 36.7379C113.429 38.1804 113.49 39.9551 113.769 41.2918C113.913 41.9337 114.064 42.6285 114.494 43.1043C114.6 43.2024 114.766 43.1496 114.97 43.0816C116.224 42.553 117.228 41.3673 118.187 40.3025C119.539 38.709 120.823 36.9116 121.94 35.1444C122.076 34.8877 122.409 34.7895 122.658 34.9481C122.862 35.0765 122.937 35.3257 122.862 35.5447C122.046 37.6819 121.057 39.6077 119.826 41.5259C118.618 43.278 117.205 45.4227 114.857 45.8532C112.629 46.1477 111.292 43.9199 110.809 42.0696C110.469 40.8915 110.265 39.721 110.167 38.6108C109.978 36.9796 109.827 35.1747 109.85 33.5359C109.842 28.4609 110.635 23.3708 112.221 18.5678C112.931 16.4305 113.777 14.3386 114.864 12.3298C115.574 10.9931 116.458 9.51288 117.674 8.44049C118.806 7.44363 120.453 7.27748 121.268 8.75012C121.359 8.93137 121.51 9.24101 121.502 9.47512C121.548 14.2707 120.241 18.9151 118.3 23.2274C116.337 27.4716 113.89 31.4364 110.937 35.0689C110.552 35.5674 109.774 34.9481 110.19 34.4345Z" fill="black"/>
<path d="M125.49 25.2587C125.717 29.0951 124.161 32.6521 124.607 36.3602C124.667 36.7529 124.826 36.9946 124.788 36.9568L124.735 36.9417C124.962 36.987 125.392 36.7151 125.792 36.3677C128.065 34.2154 129.666 31.1871 131.275 28.4381C131.758 27.5168 133.178 28.1134 132.853 29.1027C131.698 32.4633 128.315 41.4654 123.58 39.8719C119.879 38.4143 121.382 30.8774 122.311 27.9548C122.696 26.8446 123.157 25.7798 123.859 24.7678C124.146 24.36 124.705 24.2619 125.113 24.5413C125.354 24.6999 125.49 24.9717 125.49 25.2587Z" fill="black"/>
<path d="M143.895 22.1246C140.511 22.1472 138.434 24.005 136.539 26.4519C135.074 28.4003 133.443 31.2172 133.563 33.4753L133.397 33.4073L133.39 33.4224C134.183 33.3469 134.976 32.6974 135.701 32.0782C136.856 31.036 137.921 29.7295 138.895 28.3475C140.859 25.4399 142.732 22.4342 144.823 19.6098C144.937 19.3605 145.231 19.2548 145.481 19.3681C145.722 19.4814 145.813 19.7533 145.737 19.9949C144.348 26.6407 143.124 33.3318 142.686 40.0153C142.452 43.4968 142.067 46.933 141.319 50.3767C140.927 52.1212 140.428 53.8733 139.514 55.6405C138.057 58.767 134.296 60.8438 130.875 59.6657C127.069 58.3818 126.298 53.9488 127.492 50.6259C128.753 46.8272 131.162 43.9877 133.367 41.3974C135.648 38.7768 138.102 36.3148 140.708 34.0492C143.321 31.7836 146.062 29.6766 149.06 27.8943C149.302 27.7508 149.611 27.8264 149.755 28.068C149.868 28.2644 149.838 28.506 149.695 28.6646C144.174 35.1216 138.48 41.1708 133.488 47.8921C132.159 49.9462 130.331 52.8613 131.336 55.1722C131.774 55.9652 132.801 56.1918 133.639 55.9727C134.893 55.7311 135.565 54.9608 136.229 53.8355C138.412 49.5837 138.971 44.5012 139.733 39.7057C140.647 32.856 142.467 26.1951 144.786 19.7079L145.699 20.0931C145.027 21.7394 144.317 23.3556 143.593 24.9641C142.052 28.3399 140.677 31.6703 138.057 34.4646C136.501 36.2469 133.299 38.2406 131.033 36.2091C127.862 32.9164 131.185 26.9503 133.382 24.0126C134.583 22.4569 136.237 21.0447 138.291 20.3423C140.338 19.6551 142.709 19.859 144.34 21.2335C144.748 21.5959 144.416 22.2001 143.895 22.1246Z" fill="black"/>
<path d="M149.475 26.5954C151.982 21.5809 154.278 16.4153 156.212 11.1516C156.68 9.8375 157.125 8.50835 157.518 7.17919C157.926 5.60082 158.455 3.98469 158.236 2.47428C158.236 2.40631 158.205 2.41387 158.198 2.39121C158.183 2.36855 158.205 2.36856 158.16 2.32324C158.107 2.23262 158.047 2.20241 158.039 2.20241C158.024 2.20241 158.1 2.27793 158.205 2.29303C158.303 2.31569 158.349 2.29304 158.319 2.32324C157.782 2.79147 157.352 3.59953 156.982 4.33208C156.113 6.14456 155.471 8.07788 154.898 10.0188C153.719 13.908 152.904 17.9408 152.511 21.9812C152.133 24.7981 151.628 27.547 151.212 30.2657C150.789 32.992 150.502 35.7183 150.268 38.5503C150.238 39.0865 149.422 39.1922 149.271 38.656C148.441 35.8844 148.07 32.9542 148.04 30.0543C148.048 25.6817 148.403 21.4827 148.947 17.2158C149.732 12.8432 151.273 8.73491 153.402 4.83807C154.18 3.4787 154.92 2.21752 156.076 1.0545C157.239 -0.19158 159.164 -0.576736 160.071 1.25841C160.41 1.90788 160.395 2.79902 160.305 3.43339C160.071 5.00421 159.595 6.34092 159.119 7.70783C156.642 14.3536 153.448 20.6898 150.374 27.0486C150.072 27.6301 149.181 27.1996 149.475 26.5954Z" fill="black"/>
<path d="M149.377 36.8059C149.664 31.2702 152.979 20.7654 159.836 20.8107C161.77 21.0448 162.351 23.099 162.132 24.6471C161.996 27.177 160.395 29.6768 160.41 32.1085C160.433 32.4559 160.516 32.7278 160.652 32.9166C160.667 32.9317 160.667 32.9543 160.72 32.9619C160.818 32.9997 161.082 32.977 161.362 32.8637C162.374 32.3955 163.272 31.5572 164.065 30.6963C165.191 29.4578 166.195 27.9927 167.343 26.6106C167.517 26.3992 167.834 26.369 168.053 26.5427C168.242 26.7013 168.287 26.9656 168.174 27.1695C166.92 29.5106 165.757 32.1614 163.658 34.0267C161.407 36.2395 158.311 35.8468 157.767 32.4408C157.367 29.5106 158.915 27.1695 159.074 24.4055C159.104 24.0581 159.074 23.7258 159.036 23.6276C159.021 23.5898 159.021 23.6351 159.119 23.7484C159.225 23.8542 159.391 23.9221 159.413 23.9146C159.451 23.9146 159.383 23.9146 159.277 23.9372C154.98 25.2588 152.201 32.9694 150.359 37.0173C150.162 37.5384 149.339 37.3647 149.377 36.8059Z" fill="black"/>
<path d="M172.373 3.80333C173.249 12.4882 171.391 21.0219 169.964 29.5255C169.692 31.3833 169.616 33.8226 170.152 35.3406C170.1 35.3104 169.949 35.2726 169.858 35.2802C169.767 35.2877 169.767 35.3179 169.843 35.3028C170.409 35.1518 171.149 34.4419 171.633 33.9283C174.321 30.9906 176.549 26.9503 178.664 23.4839C178.807 23.2422 179.117 23.1667 179.358 23.3102C179.555 23.431 179.645 23.6652 179.585 23.8766C179.019 25.9987 178.339 28.0831 177.501 30.1221C176.164 33.1731 173.717 39.1846 169.639 39.2299C166.376 39.0864 165.448 35.0687 165.334 32.5841C165.115 29.163 165.848 25.8326 166.346 22.4795C167.003 18.205 167.811 13.9684 169.08 9.82229C169.722 7.74549 170.417 5.66868 171.376 3.63719C171.58 3.17651 172.335 3.29735 172.373 3.80333Z" fill="black"/>
<path d="M159.821 16.0153C160.879 14.2632 162.487 13.4778 164.27 12.8585C169.292 11.0309 174.623 9.66403 180.008 9.95101C180.559 9.98121 180.658 10.7968 180.114 10.9479C176.791 11.9825 173.559 13.07 170.311 14.2708L165.493 16.0908C163.9 16.7554 162.299 17.3142 160.237 16.9291C159.829 16.8536 159.602 16.3702 159.821 16.0153Z" fill="black"/>
<path d="M126.902 20.7653C127.121 22.9025 124.078 23.4009 123.708 21.158C123.519 18.8999 126.592 18.6432 126.902 20.7653ZM125.905 20.8937C125.754 20.9088 125.724 21.2109 125.883 21.3694C125.996 21.5054 126.237 21.5733 126.449 21.4601C126.97 21.2184 126.857 20.3046 126.29 20.1989C126.056 20.146 125.837 20.2744 125.762 20.4254C125.656 20.6293 125.762 20.9163 125.905 20.8937Z" fill="black"/>
<path d="M72.0517 39.1622C74.0681 40.1741 76.3186 40.4989 78.4634 40.378C81.0537 40.4234 84.1349 39.8192 83.561 36.6625C81.9146 30.2357 74.2569 35.9752 71.3267 38.6939C68.7213 41.2239 66.0478 43.6481 63.0421 45.7324C58.1107 49.0855 50.8834 53.0428 44.6379 51.185C36.3382 48.4889 34.0197 35.2427 41.2999 30.2206C48.8972 25.4401 58.9414 29.8128 65.64 34.276C66.1536 34.6234 65.6702 35.4239 65.1265 35.1369C59.0245 32.1086 49.3503 28.6044 43.2936 32.9771C39.6233 35.9677 40.59 42.6059 43.8902 45.4757C49.1842 50.1428 60.769 40.8991 64.7716 36.8739C68.3739 33.1583 72.1876 29.2011 77.61 28.393C80.7441 27.8719 84.5201 29.0878 86.2495 31.9349C88.9909 36.0961 87.5333 42.4095 82.1865 43.2403C80.8498 43.4744 79.5055 43.497 78.199 43.2403C75.7069 42.6814 73.3657 41.5864 71.5004 39.9853C71.0397 39.6077 71.5457 38.8903 72.0517 39.1622Z" fill="black"/>
<path d="M126.623 20.2819C126.925 20.6218 126.887 21.1429 126.547 21.4374C126.207 21.7395 125.686 21.7017 125.392 21.3619C125.09 21.022 125.128 20.5009 125.467 20.2064C125.8 19.9119 126.321 19.9421 126.623 20.2819Z" fill="black"/>
<path d="M104.737 51.9098L105.605 54.8853L106.398 52.1137C106.481 51.8267 106.549 51.6228 106.587 51.5171C106.625 51.4114 106.708 51.3132 106.814 51.215C106.927 51.1168 107.078 51.0715 107.274 51.0715C107.471 51.0715 107.629 51.1168 107.743 51.215C107.856 51.3132 107.931 51.4189 107.977 51.5246C108.022 51.6379 108.082 51.8343 108.166 52.1061L108.959 54.8777L109.835 51.9022C109.895 51.6908 109.94 51.5322 109.978 51.434C110.016 51.3358 110.076 51.2528 110.159 51.1773C110.242 51.1017 110.363 51.064 110.522 51.064C110.68 51.064 110.816 51.1168 110.937 51.2301C111.058 51.3434 111.111 51.4718 111.111 51.6228C111.111 51.7588 111.058 51.9627 110.96 52.2421L109.872 55.4366C109.782 55.7085 109.706 55.9048 109.653 56.0256C109.6 56.1465 109.517 56.2522 109.404 56.3504C109.291 56.441 109.14 56.4939 108.943 56.4939C108.74 56.4939 108.581 56.441 108.468 56.3428C108.354 56.2447 108.264 56.1163 108.211 55.9728C108.158 55.8293 108.098 55.6329 108.03 55.3988L107.267 52.8009L106.527 55.3988C106.429 55.7613 106.323 56.0332 106.21 56.2144C106.096 56.3957 105.892 56.4939 105.605 56.4939C105.462 56.4939 105.334 56.4637 105.235 56.4108C105.13 56.3504 105.047 56.2749 104.979 56.1691C104.911 56.0634 104.85 55.935 104.797 55.7915C104.744 55.648 104.707 55.5348 104.677 55.4441L103.597 52.2496C103.491 51.9476 103.438 51.7436 103.438 51.6304C103.438 51.4869 103.498 51.3585 103.612 51.2452C103.725 51.1319 103.868 51.0715 104.035 51.0715C104.254 51.0715 104.405 51.1319 104.48 51.2603C104.563 51.3963 104.646 51.6077 104.737 51.9098Z" fill="black"/>
<path d="M112.712 50.4598C112.523 50.4598 112.364 50.3994 112.236 50.2861C112.108 50.1728 112.04 50.0143 112.04 49.8028C112.04 49.614 112.108 49.4554 112.243 49.3346C112.379 49.2137 112.538 49.1533 112.712 49.1533C112.885 49.1533 113.036 49.2062 113.172 49.3195C113.308 49.4327 113.376 49.5913 113.376 49.8028C113.376 50.0067 113.308 50.1653 113.18 50.2861C113.052 50.407 112.885 50.4598 112.712 50.4598ZM113.369 51.8418V55.6934C113.369 55.9577 113.308 56.1616 113.18 56.2975C113.052 56.4335 112.893 56.5014 112.697 56.5014C112.5 56.5014 112.342 56.4335 112.221 56.29C112.1 56.1465 112.04 55.9501 112.04 55.6858V51.8721C112.04 51.6077 112.1 51.4114 112.221 51.2754C112.342 51.1395 112.5 51.0715 112.697 51.0715C112.893 51.0715 113.052 51.1395 113.18 51.2754C113.308 51.4189 113.369 51.6002 113.369 51.8418Z" fill="black"/>
<path d="M114.819 51.1999H114.962V50.3994C114.962 50.188 114.97 50.0143 114.977 49.8934C114.985 49.7726 115.023 49.6669 115.076 49.5762C115.128 49.4856 115.204 49.4101 115.302 49.3572C115.4 49.2968 115.506 49.2742 115.627 49.2742C115.793 49.2742 115.952 49.3346 116.087 49.463C116.178 49.546 116.239 49.6518 116.261 49.7726C116.284 49.8934 116.299 50.0671 116.299 50.2937V51.1999H116.79C116.979 51.1999 117.122 51.2452 117.22 51.3359C117.318 51.4265 117.371 51.5398 117.371 51.6833C117.371 51.8645 117.303 51.9853 117.16 52.0609C117.016 52.1364 116.812 52.1666 116.556 52.1666H116.306V54.621C116.306 54.8325 116.314 54.9911 116.329 55.1043C116.344 55.2176 116.382 55.3082 116.45 55.3762C116.51 55.4442 116.616 55.4819 116.76 55.4819C116.835 55.4819 116.941 55.4668 117.077 55.4442C117.213 55.414 117.311 55.4064 117.386 55.4064C117.492 55.4064 117.59 55.4517 117.673 55.5348C117.756 55.6179 117.802 55.7312 117.802 55.852C117.802 56.0634 117.681 56.2296 117.447 56.3429C117.213 56.4561 116.873 56.5166 116.435 56.5166C116.02 56.5166 115.702 56.4486 115.491 56.3051C115.279 56.1616 115.136 55.9728 115.068 55.7236C115 55.4744 114.97 55.1496 114.97 54.7343V52.1741H114.796C114.607 52.1741 114.456 52.1288 114.358 52.0382C114.26 51.9476 114.207 51.8343 114.207 51.6908C114.207 51.5473 114.26 51.4341 114.366 51.3434C114.471 51.2528 114.615 51.1999 114.819 51.1999Z" fill="black"/>
<path d="M119.592 49.9086V51.8873C119.758 51.6909 119.924 51.5399 120.09 51.4266C120.249 51.3133 120.43 51.2302 120.626 51.1698C120.823 51.1094 121.034 51.0868 121.253 51.0868C121.593 51.0868 121.895 51.1623 122.152 51.2982C122.408 51.4342 122.62 51.6532 122.771 51.925C122.862 52.0836 122.93 52.2649 122.96 52.4612C122.99 52.6576 123.005 52.8841 123.005 53.1409V55.6935C123.005 55.9578 122.945 56.1617 122.824 56.2977C122.703 56.4336 122.537 56.5016 122.341 56.5016C121.903 56.5016 121.684 56.2297 121.684 55.6935V53.443C121.684 53.0201 121.623 52.6878 121.495 52.4612C121.366 52.2347 121.125 52.1138 120.77 52.1138C120.536 52.1138 120.317 52.1818 120.128 52.3177C119.939 52.4537 119.795 52.6349 119.697 52.869C119.622 53.0654 119.592 53.4203 119.592 53.9263V55.6935C119.592 55.9578 119.531 56.1617 119.41 56.2977C119.29 56.4336 119.123 56.5016 118.912 56.5016C118.474 56.5016 118.255 56.2297 118.255 55.6935V49.9086C118.255 49.6368 118.315 49.4329 118.429 49.3045C118.542 49.1761 118.708 49.1006 118.912 49.1006C119.123 49.1006 119.29 49.1685 119.41 49.3045C119.531 49.4404 119.592 49.6443 119.592 49.9086Z" fill="black"/>
<path d="M149.317 55.0288L147.595 48.1867V55.5953C147.595 56.0031 147.504 56.3127 147.323 56.5166C147.142 56.7205 146.9 56.8262 146.59 56.8262C146.296 56.8262 146.062 56.7281 145.873 56.5242C145.684 56.3203 145.594 56.0106 145.594 55.5953V47.0992C145.594 46.631 145.714 46.3138 145.956 46.1477C146.198 45.9815 146.53 45.906 146.945 45.906H147.617C148.025 45.906 148.32 45.9438 148.501 46.0193C148.682 46.0948 148.818 46.2232 148.909 46.412C148.999 46.6008 149.098 46.9104 149.211 47.3409L150.774 53.2239L152.337 47.3409C152.451 46.9104 152.549 46.6008 152.64 46.412C152.73 46.2232 152.866 46.0873 153.047 46.0193C153.229 45.9438 153.523 45.906 153.931 45.906H154.603C155.018 45.906 155.351 45.9891 155.592 46.1477C155.834 46.3138 155.955 46.631 155.955 47.0992V55.5953C155.955 56.0031 155.864 56.3127 155.683 56.5166C155.502 56.7205 155.253 56.8262 154.95 56.8262C154.663 56.8262 154.422 56.7205 154.241 56.5166C154.059 56.3127 153.961 56.0031 153.961 55.5953V48.1867L152.239 55.0288C152.126 55.4744 152.035 55.7992 151.967 56.0106C151.899 56.2221 151.763 56.4033 151.575 56.577C151.386 56.7507 151.122 56.8338 150.782 56.8338C150.525 56.8338 150.314 56.7809 150.14 56.6676C149.966 56.5544 149.83 56.4184 149.732 56.2447C149.634 56.071 149.558 55.8822 149.498 55.6783C149.43 55.4744 149.377 55.2554 149.317 55.0288Z" fill="#CF2228"/>
<path d="M160.357 54.923H164.179C164.556 54.923 164.851 54.9985 165.047 55.1571C165.243 55.3157 165.349 55.5272 165.349 55.7915C165.349 56.0332 165.266 56.2371 165.115 56.3956C164.957 56.5618 164.715 56.6449 164.39 56.6449H158.998C158.635 56.6449 158.349 56.5467 158.145 56.3428C157.941 56.1389 157.835 55.9048 157.835 55.6253C157.835 55.4516 157.903 55.2175 158.031 54.923C158.16 54.636 158.311 54.4019 158.462 54.2358C159.111 53.5636 159.7 52.9821 160.221 52.5064C160.742 52.023 161.12 51.7058 161.339 51.5548C161.739 51.2754 162.072 50.9884 162.336 50.7014C162.6 50.4144 162.804 50.1199 162.94 49.8254C163.076 49.5233 163.152 49.2288 163.152 48.9418C163.152 48.6322 163.076 48.3527 162.925 48.1035C162.774 47.8543 162.57 47.6655 162.321 47.5296C162.064 47.3936 161.785 47.3257 161.483 47.3257C160.841 47.3257 160.342 47.6051 159.972 48.1715C159.927 48.247 159.844 48.4434 159.731 48.7757C159.617 49.1004 159.489 49.3572 159.345 49.5309C159.202 49.7046 158.99 49.7952 158.711 49.7952C158.469 49.7952 158.265 49.7121 158.107 49.5535C157.948 49.3949 157.865 49.1759 157.865 48.8965C157.865 48.5567 157.941 48.2093 158.092 47.8392C158.243 47.4767 158.469 47.1444 158.771 46.8423C159.073 46.5478 159.451 46.3061 159.912 46.1249C160.372 45.9437 160.916 45.853 161.535 45.853C162.283 45.853 162.917 45.9739 163.446 46.208C163.786 46.3666 164.088 46.578 164.345 46.8499C164.602 47.1218 164.805 47.439 164.949 47.8015C165.092 48.1564 165.168 48.534 165.168 48.9191C165.168 49.5233 165.017 50.0746 164.715 50.573C164.413 51.0715 164.111 51.4566 163.794 51.736C163.484 52.0155 162.955 52.461 162.223 53.0577C161.49 53.6618 160.984 54.1225 160.712 54.4548C160.599 54.5756 160.478 54.7342 160.357 54.923Z" fill="#CF2228"/>
<path d="M171.263 52.4687H169.269V55.5046C169.269 55.9427 169.163 56.2674 168.959 56.494C168.755 56.7205 168.499 56.8338 168.181 56.8338C167.857 56.8338 167.592 56.7205 167.389 56.5015C167.185 56.2825 167.086 55.9502 167.086 55.5273V47.2503C167.086 46.7745 167.2 46.4271 167.419 46.2232C167.638 46.0193 167.985 45.9136 168.468 45.9136H171.255C172.078 45.9136 172.713 45.974 173.158 46.1024C173.596 46.2232 173.974 46.4271 174.299 46.7065C174.616 46.9935 174.857 47.3333 175.024 47.7487C175.19 48.1641 175.273 48.6172 175.273 49.1307C175.273 50.2258 174.933 51.0565 174.261 51.6154C173.604 52.1818 172.599 52.4687 171.263 52.4687ZM170.742 47.5448H169.277V50.8224H170.742C171.255 50.8224 171.686 50.7695 172.025 50.6638C172.373 50.5581 172.63 50.3844 172.811 50.1352C172.992 49.8935 173.083 49.5687 173.083 49.176C173.083 48.7003 172.947 48.3151 172.667 48.0206C172.35 47.7034 171.708 47.5448 170.742 47.5448Z" fill="#CF2228"/>
</svg>
